PathFileType  4	(X/Y/Z) C:\Users\antoi\Documents\MyRepositories\mobilecap\ResultsAnalysis
DataRate	CameraRate	NumFrames	NumMarkers	Units	OrigDataRate	OrigDataStartFrame	OrigNumFrames
100.0	100.0	5	51	mm	100.0	1	121
Frame#	Time	r_knee			r_shank_antsup			r_ankle			r_calc			r_5meta			r_toe			L_knee			L_shank_antsup			L_ankle			L_calc			L_5meta			L_toe			r_sh2			r_sh3			r_sh4			L_sh2			L_sh3			r_thigh1			r_thigh2			r_thigh3			r_thigh4			r_thigh5			L_thigh1			L_thigh2			L_thigh3			L_thigh4			r.ASIS			r.PSIS			L.ASIS			L.PSIS			C7			R_Shoulder			L_Shoulder			R_Sternum			L_Sternum			R_humerus			R_elbow_med			R_elbow_lat			R_forearm			R_wrist_radius			R_wrist_ulna			L_humerus			L_elbow_med			L_elbow_lat			L_forearm			L_wrist_radius			L_wrist_ulna			R_HJC			L_HJC			R_HJC_reg			L_HJC_reg			
		X1	Y1	Z1	X2	Y2	Z2	X3	Y3	Z3	X4	Y4	Z4	X5	Y5	Z5	X6	Y6	Z6	X7	Y7	Z7	X8	Y8	Z8	X9	Y9	Z9	X10	Y10	Z10	X11	Y11	Z11	X12	Y12	Z12	X13	Y13	Z13	X14	Y14	Z14	X15	Y15	Z15	X16	Y16	Z16	X17	Y17	Z17	X18	Y18	Z18	X19	Y19	Z19	X20	Y20	Z20	X21	Y21	Z21	X22	Y22	Z22	X23	Y23	Z23	X24	Y24	Z24	X25	Y25	Z25	X26	Y26	Z26	X27	Y27	Z27	X28	Y28	Z28	X29	Y29	Z29	X30	Y30	Z30	X31	Y31	Z31	X32	Y32	Z32	X33	Y33	Z33	X34	Y34	Z34	X35	Y35	Z35	X36	Y36	Z36	X37	Y37	Z37	X38	Y38	Z38	X39	Y39	Z39	X40	Y40	Z40	X41	Y41	Z41	X42	Y42	Z42	X43	Y43	Z43	X44	Y44	Z44	X45	Y45	Z45	X46	Y46	Z46	X47	Y47	Z47	X48	Y48	Z48	X49	Y49	Z49	X50	Y50	Z50	X51	Y51	Z51	

1	0.00000000	-19.13887	456.31012	-62.85415	16.58091	393.89338	-41.21525	95.27021	97.10032	-79.01491	44.16530	46.25831	-115.18908	212.60361	88.37317	-63.79645	237.06387	129.71371	-118.42084	-387.33971	453.56933	-323.01413	-396.21247	381.11106	-323.40547	-598.08955	144.65200	-287.97874	-676.54073	147.18499	-241.94881	-547.94155	52.56737	-315.34094	-492.01726	50.40992	-262.62866	50.40811	286.78957	-40.19969	-55.48049	370.48205	-45.60453	-28.09810	258.21953	-47.08467	-467.65672	436.12422	-338.03295	-531.80912	331.86806	-335.61834	-92.76648	760.33762	-62.71606	-38.38106	661.46840	-59.81967	-68.26565	623.59227	-12.31450	-174.83573	720.33538	3.83373	-124.98422	615.78410	-6.18794	-230.76586	703.41874	-363.87274	-269.57776	570.40672	-354.13514	-342.06440	736.54129	-362.06899	-373.86638	599.29238	-340.66256	-137.19551	880.04468	-75.38477	-329.36872	876.07717	-115.61209	-178.30524	872.15912	-332.22601	-348.62553	880.07304	-217.93812	-294.33052	1349.43364	-176.14859	-235.96266	1292.12472	-21.06436	-233.10794	1302.95803	-338.98210	-172.70028	1270.26124	-159.52594	-174.76166	1271.28662	-204.76286	-267.93594	1051.52788	49.11383	-313.87122	957.34031	-13.89591	-311.14219	974.84601	55.50343	-302.65670	859.08124	89.30961	-325.80367	740.54051	100.43538	-369.79977	750.89787	100.18357	-162.38973	1193.76392	-386.92321	-145.42522	968.96559	-370.78701	-128.79140	988.40798	-428.18260	-18.56060	964.50253	-419.02005	86.27523	904.79388	-385.59274	77.95155	874.00140	-406.43465	-198.26286	797.50193	-91.58508	-230.65270	797.15823	-289.23945	-191.20735	781.64388	-106.31819	-222.94830	788.23081	-274.98095	
2	0.01000000	-2.78529	455.67288	-63.40715	31.97758	392.60782	-42.24843	103.02169	95.03691	-80.28962	48.06276	48.74955	-116.35580	217.76344	79.52217	-64.71149	245.45021	118.28080	-119.55740	-368.20627	451.47533	-323.30405	-379.76094	379.23953	-324.07678	-589.26094	150.44592	-287.35528	-666.63388	157.72231	-240.43410	-545.11128	55.02576	-314.76726	-489.67934	49.76711	-262.36921	64.21164	284.97305	-41.57247	-40.32469	370.23295	-46.98843	-14.74212	257.61500	-49.04228	-449.11766	436.75806	-337.81150	-516.95690	335.03445	-334.92596	-74.56518	760.17086	-62.72731	-20.65207	660.78665	-60.80110	-51.05803	622.81176	-13.39641	-156.42163	720.45498	4.76726	-107.67884	615.50339	-6.49762	-212.87319	702.41501	-362.15363	-250.82615	568.95937	-353.72495	-324.32355	734.84340	-359.74646	-355.12121	597.20999	-339.37764	-119.23430	879.17158	-73.97255	-311.62890	875.60092	-113.72508	-160.47211	870.89512	-330.47151	-330.75435	879.55752	-216.32895	-278.35536	1348.59119	-173.72579	-219.06149	1291.59445	-18.94002	-217.82844	1302.31956	-336.83795	-156.34788	1269.96829	-157.52570	-158.42169	1270.96768	-202.71057	-251.63071	1050.97479	50.85430	-297.73630	957.09717	-12.49282	-295.19231	974.42461	56.86199	-287.48590	858.58699	90.48442	-311.44917	740.10389	101.28894	-355.26041	750.72123	100.89265	-147.36303	1192.71983	-384.75695	-131.44099	967.66552	-368.39130	-115.20304	987.02154	-426.05837	-5.12741	962.51782	-416.88187	99.59675	902.07918	-383.46466	90.94273	871.53726	-404.52140	-180.57324	796.75134	-89.79851	-213.07358	796.13762	-287.44384	-173.73889	780.83812	-104.78370	-205.15472	787.33489	-273.31874	
3	0.02000000	13.62037	455.32599	-63.98716	47.40507	391.54567	-43.27818	110.27351	93.13882	-81.49864	51.61209	51.07304	-117.37775	222.52891	71.32321	-65.59822	253.18487	107.51744	-120.72493	-348.50366	449.32017	-323.67755	-362.80713	377.41389	-324.88321	-579.76888	156.41925	-286.72037	-655.66156	168.67344	-238.84084	-542.08946	57.78839	-314.10381	-487.17823	49.22249	-262.14262	77.81229	283.34669	-42.90136	-25.17905	370.36135	-48.21910	-1.62562	257.35737	-50.75581	-430.02069	437.42790	-337.57012	-501.54337	338.32606	-334.17289	-56.52810	760.26744	-62.57193	-3.06113	660.43086	-61.57147	-33.87668	622.31755	-14.24702	-138.19466	720.78264	5.79453	-90.44269	615.48647	-6.67847	-194.63268	701.42507	-360.36323	-231.60668	567.55883	-353.38608	-306.36552	733.04799	-357.46566	-335.97018	594.99288	-338.20954	-101.44243	878.55929	-72.50244	-294.04436	875.33348	-111.96057	-142.63555	869.79221	-328.68597	-312.96037	879.07939	-214.86112	-262.32902	1347.91396	-171.30995	-202.15366	1291.20614	-16.80411	-202.49575	1301.80176	-334.72475	-139.98944	1269.81331	-155.51091	-142.08937	1270.77822	-200.65427	-235.18000	1050.54746	52.60755	-281.46231	956.96674	-11.07207	-279.07412	974.11380	58.25356	-272.06247	858.19807	91.67065	-296.74905	739.76263	102.14405	-340.39930	750.60488	101.62778	-132.40111	1191.71435	-382.66652	-117.69166	966.42527	-365.98887	-101.83389	985.64164	-423.91495	8.09775	960.46548	-414.82024	112.66368	899.25460	-381.45998	103.66786	868.96540	-402.73359	-163.01523	796.24253	-87.97878	-195.46496	795.24525	-285.63716	-156.43348	780.40829	-103.08126	-187.39848	786.53855	-271.51619	
4	0.03000000	30.05390	455.47873	-64.57907	62.80726	390.86614	-44.26881	116.62507	91.54904	-82.57888	54.55149	53.09396	-118.15417	226.59240	64.28538	-66.40528	259.76129	97.96961	-121.90375	-327.77069	447.04361	-324.21213	-344.90697	375.65884	-325.92833	-569.05011	162.71936	-286.05969	-642.69608	180.33432	-237.09402	-538.68794	61.15392	-313.28180	-484.37215	48.90456	-261.98476	90.98580	282.05315	-44.13083	-10.12931	371.13773	-49.13400	11.01233	257.69740	-52.01188	-409.87804	438.14274	-337.29801	-485.06813	341.82218	-333.31481	-38.79563	760.84523	-62.11775	14.27350	660.65772	-61.97281	-16.77387	622.34871	-14.69655	-120.30981	721.49387	6.99074	-73.34714	615.94641	-6.61896	-175.79079	700.46933	-358.46087	-211.55405	566.24915	-353.17189	-288.02965	731.06312	-355.26247	-316.09404	592.52957	-337.25699	-83.97958	878.43288	-70.92374	-276.75540	875.44035	-110.43267	-124.81762	868.97862	-326.84493	-295.32605	878.66881	-213.66056	-246.21633	1347.54505	-168.91499	-185.23316	1291.08232	-14.65757	-187.05982	1301.50262	-332.67033	-123.62755	1269.90270	-153.47710	-125.77132	1270.81902	-198.59448	-218.46540	1050.35308	54.37985	-264.93234	957.04410	-9.61957	-262.64522	974.00667	59.70228	-256.17581	858.00328	92.87718	-281.41437	739.59665	103.00592	-324.94569	750.60185	102.41462	-117.55480	1190.78466	-380.71356	-104.35309	965.29766	-363.57365	-88.85813	984.28516	-421.73950	20.94261	958.29677	-412.89714	125.26956	896.22398	-379.67727	115.89839	866.19100	-401.17611	-145.71603	796.17966	-86.10094	-177.81775	794.58399	-283.81134	-139.43142	780.65508	-101.07690	-169.72797	785.92515	-269.46080	
5	0.04000000	46.35355	456.20123	-65.10220	77.98695	390.62174	-45.13321	121.83728	90.36268	-83.47581	56.75924	54.73263	-118.65121	229.78676	58.68184	-67.05714	264.90833	89.97493	-123.00857	-305.73592	444.59883	-324.96820	-325.73242	373.97199	-327.25949	-556.71467	169.43251	-285.35206	-627.07826	192.78733	-235.12630	-534.70062	65.39153	-312.26709	-481.12202	48.98597	-261.93017	103.47595	281.15446	-45.18117	4.61775	372.65527	-49.57273	22.93264	258.72653	-52.65705	-388.34350	438.87201	-337.00039	-467.15249	345.52409	-332.33354	-21.48004	762.02861	-61.29218	31.24162	661.58976	-61.92863	0.13875	623.04371	-14.66937	-102.88761	722.70176	8.39438	-56.49280	617.00227	-6.24052	-156.26991	699.58728	-356.45666	-190.48734	565.07439	-353.10436	-269.26071	728.81616	-353.16417	-295.33129	589.75574	-336.58551	-66.98951	878.94889	-69.20177	-259.88270	876.01515	-109.23166	-107.09046	868.53043	-324.93898	-277.94867	878.34785	-212.81800	-230.01886	1347.58967	-166.56792	-168.30750	1291.31158	-12.52202	-171.49151	1301.48543	-330.69776	-107.28717	1270.29408	-151.43824	-109.48609	1271.14651	-196.54178	-201.42192	1050.46798	56.16534	-248.07817	957.39435	-8.12773	-245.81696	974.16700	61.21739	-239.69098	858.06495	94.10773	-265.25665	739.66072	103.88459	-308.72067	750.75252	103.27848	-102.86044	1189.97014	-378.93611	-91.51875	964.33008	-361.14509	-76.38378	982.98887	-419.53141	33.28629	955.99569	-411.15154	137.27239	892.91722	-378.17600	127.45893	863.14208	-399.91820	-128.79827	796.69821	-84.15600	-160.16897	794.21718	-281.96476	-122.84313	781.74915	-98.69815	-152.21895	785.55202	-267.09249	
